<svg id="Camada_1" data-name="Camada 1" xmlns="http://www.w3.org/2000/svg" viewBox="0 0 181.46 57.88"><path d="M22.54,74.07q2.31-.61,4.11-6.33a46.55,46.55,0,0,0,2-12.47,5.47,5.47,0,0,0,.05-.82V52.93a5.1,5.1,0,0,0-.05-.76c0-.26,0-.51,0-.76s0-.48,0-.7a44.65,44.65,0,0,0-.84-6.25,24.89,24.89,0,0,0-1.18-3.94,5.93,5.93,0,0,0-1.05-1.86c-.35-.37-.63-.56-.81-.56a1.29,1.29,0,0,0-.82.34,5.38,5.38,0,0,0-.87.9A15.5,15.5,0,0,0,21.19,43a30,30,0,0,0-1.41,4.87c-.11.56-.2,1.12-.28,1.69s-.13,1.1-.17,1.63v.39a.19.19,0,0,0,0,.14v.2a4.42,4.42,0,0,0,.95,3.24,4.12,4.12,0,0,0,2.09,1.15,3.4,3.4,0,0,1,.45,0l.45,0a5.53,5.53,0,0,0,.84-.06l.73-.11a2.72,2.72,0,0,0,.68-.11l.68.84a6.71,6.71,0,0,1-1.55,2.54A7.68,7.68,0,0,1,22,61a7.8,7.8,0,0,1-1.46.42,12.12,12.12,0,0,1-1.52.2,7.61,7.61,0,0,1-4.7-1.58,6.35,6.35,0,0,1-2.56-4.16c0-.23-.08-.44-.11-.65a3.34,3.34,0,0,1-.06-.65,3.63,3.63,0,0,1-.06-.64V53.3a18.26,18.26,0,0,1,.28-3.21c.19-1,.4-1.91.62-2.7.19-.6.36-1.12.51-1.55s.26-.74.34-.93l3.26-8.5a.12.12,0,0,1,0-.09s0,0,0-.08a11,11,0,0,1,.48-1.13,1,1,0,0,1,.87-.56h.17a1.8,1.8,0,0,1,.79.17,1.64,1.64,0,0,1,.56.45c.38-.15.73-.28,1.07-.39l1-.34c.34-.08.68-.14,1-.2a6.12,6.12,0,0,1,1.07-.08h.45a.25.25,0,0,0,.17.05h.22q5.74.57,8.11,4.9a25.33,25.33,0,0,1,2.93,9.46c.11,1.09.18,2.16.22,3.21s.06,2.06.06,3A47.91,47.91,0,0,1,34.2,67.49,28.73,28.73,0,0,1,31,74.75a10.27,10.27,0,0,1-3.21,3.32l-1.57.85c-.23.22-.43.43-.59.61l-.48.51a3.82,3.82,0,0,1-1,.73,4.12,4.12,0,0,1-1.72.28h-.59a3.7,3.7,0,0,1-.65,0,6.22,6.22,0,0,1-3.38-1.44,16.87,16.87,0,0,1-2.76-2.78A17.72,17.72,0,0,1,13.2,74a7.86,7.86,0,0,1-.68-1.47l2.36-2.42a23.05,23.05,0,0,0,2.43,2.31A8.43,8.43,0,0,0,19.9,74a4.11,4.11,0,0,0,.67.17,3.91,3.91,0,0,0,.68.06,4.58,4.58,0,0,0,.53,0,3.41,3.41,0,0,0,.48-.09Z" transform="translate(-11.56 -34.16)"/><path d="M37.46,77.17l.06.06.67-21.4s0,0,0,0,0,0,0-.06v-.23a2.08,2.08,0,0,1,0-.39,2.75,2.75,0,0,1,.17-.45,2.72,2.72,0,0,1,.48-.82,3.22,3.22,0,0,1,.65-.59.11.11,0,0,0,.08,0l.09,0a.7.7,0,0,1,.48-.06.86.86,0,0,1,.36.22.12.12,0,0,1,.09,0s0,0,.08,0a2.3,2.3,0,0,0,.28.23.75.75,0,0,0,.4.11h0a1.55,1.55,0,0,0,.56-.11,2.11,2.11,0,0,0,.51-.29.71.71,0,0,1,.26-.16l.25-.12a1.56,1.56,0,0,1,.45-.14.62.62,0,0,1,.45.14,3.24,3.24,0,0,1,.45.43c.19.2.39.44.62.7a.9.9,0,0,0,.14.2.67.67,0,0,1,.14.19c.23.3.43.6.62.9a1.64,1.64,0,0,1,.28.57c-.26.6-.49,1.11-.67,1.52-.08.22-.16.47-.26.73a3.78,3.78,0,0,0-.19.79,1,1,0,0,0-.09.22.91.91,0,0,0,0,.23c-.07.37-.14.75-.19,1.12s-.11.76-.15,1.13c-.22,1.73-.37,3.32-.45,4.79S44,68.82,44,68.89q2.25-3.15,4.67-10.81A9.21,9.21,0,0,0,49,56.82c.08-.4.13-.78.17-1.16a6.8,6.8,0,0,0,.06-.9c0-.3,0-.64.05-1V53.3a16,16,0,0,1,1.52-1.18l.74-.48a5,5,0,0,1,.78-.42A5.82,5.82,0,0,1,53,51a2.44,2.44,0,0,1,.62-.09h.25a.27.27,0,0,1,.2.06,1.61,1.61,0,0,1,.87.45,3.1,3.1,0,0,1,.54.85,3.94,3.94,0,0,1,.5,0,1.56,1.56,0,0,1,.45.14l.15.12.14.11a1.53,1.53,0,0,1,.59.62,2,2,0,0,1,.19.9s-.22.59-.56,1.66-.69,2.37-1.07,3.91q-.16.73-.36,1.5c-.14.5-.26,1-.37,1.49-.23,1.05-.42,2.07-.59,3.07a22.65,22.65,0,0,0-.31,2.67v.17a5.25,5.25,0,0,0,0,.56,5.33,5.33,0,0,1,0,.56,7,7,0,0,0,.65,2.14,1.47,1.47,0,0,0,1.33,1h.28a2.58,2.58,0,0,0,1-.42,9.51,9.51,0,0,0,1.13-.87l.48-.4.48-.45c.45-.45.84-.87,1.18-1.27s.56-.66.67-.81a.58.58,0,0,1,.15-.11.24.24,0,0,1,.14-.06.17.17,0,0,1,.14-.06H62a.57.57,0,0,1,.42.14.81.81,0,0,1,.14.54v1.29a.49.49,0,0,0-.06.23v.82a2.23,2.23,0,0,0,.06.47v.12a1.07,1.07,0,0,1-.22.78,6.39,6.39,0,0,1-.62.74l-.14.11a1,1,0,0,0-.15.11q-.16.17-.78.93a18.18,18.18,0,0,1-1.52,1.61,15.26,15.26,0,0,1-2.42,1.74,6,6,0,0,1-2.82.85,4.83,4.83,0,0,1-4-1.58,5.76,5.76,0,0,1-1.38-3.83V67.6s-.33.47-.88,1.29a25.47,25.47,0,0,0-1.94,4,21,21,0,0,0-1,2.82,10.4,10.4,0,0,0-.34,2,2,2,0,0,0,.06.51c0,.15.07.3.11.45s.07.23.11.34a1,1,0,0,1,.06.34.94.94,0,0,1-.06.28.73.73,0,0,1-.17.28,3.22,3.22,0,0,1-.65.59,3.4,3.4,0,0,1-.87.48,3.37,3.37,0,0,1-.42.17,1.86,1.86,0,0,1-.42,0h-.2a.58.58,0,0,1-.2,0l-.84-.31a4.72,4.72,0,0,1-1-.54,5.11,5.11,0,0,1-1.61-1.26,2.82,2.82,0,0,1-.7-1.89Z" transform="translate(-11.56 -34.16)"/><path d="M60.71,71.82l.28-.11c.19-.38.36-.75.51-1.13L62,69.46c.41-1.2.8-2.44,1.16-3.72A41.65,41.65,0,0,0,64,61.46c.15-.86.28-1.65.37-2.36s.16-1.41.2-2.09.06-1.52.08-2.3,0-1.66,0-2.59l.53-.12.54-.11.37-.11.42-.11a3.34,3.34,0,0,0,.79-.31L68,51a1.6,1.6,0,0,0,.19-.11l.14-.11c.3-.15.6-.3.9-.43a3.47,3.47,0,0,1,1-.25h.11l.45,0,.51.08.67.14a4.52,4.52,0,0,1,.62.2,7.2,7.2,0,0,1,.76.23,1.59,1.59,0,0,1,.37.16v1.3c0,.45,0,.92,0,1.41,0,.22,0,.45,0,.67s0,.45.09.68a13.58,13.58,0,0,0,.87,3.09c.39.94.82,1.84,1.27,2.71.56,1.05,1.07,2.12,1.52,3.21a11.06,11.06,0,0,1,.78,3.71v.85a14.58,14.58,0,0,1-.59,4.7,11,11,0,0,1-1.38,3.07,2.25,2.25,0,0,1-.36.39,3.61,3.61,0,0,1-.37.28l-4.95,2.7a2.36,2.36,0,0,0-.42.28l-.37.34a2.05,2.05,0,0,0-.2.23l-.14.17a3.91,3.91,0,0,1-.45.39.85.85,0,0,1-.51.17h0A6,6,0,0,1,65,79.93a6.49,6.49,0,0,1-1.71-2.48,6.63,6.63,0,0,1-.45-1.66,9.65,9.65,0,0,1-.12-1.38v-.34a.61.61,0,0,1,.06-.28v-.22a1.19,1.19,0,0,1-.28.05.2.2,0,0,1-.14.06.17.17,0,0,0-.14.06h-.51a6.19,6.19,0,0,1-.65-.15.59.59,0,0,1-.42-.42.41.41,0,0,1-.06-.19v-.37a.49.49,0,0,0,.06-.23.46.46,0,0,1,.06-.22c0-.11.07-.23.11-.34ZM68.31,61l-.42.85c-.13.26-.25.52-.37.78s-.14.31-.19.45a3.76,3.76,0,0,1-.2.46,2.52,2.52,0,0,1-.17.53c-.07.17-.15.37-.22.59-.12.38-.23.71-.34,1s-.23.61-.34.91-.14.46-.2.7a7.15,7.15,0,0,1-.19.7l-.12.45c0,.15-.07.32-.11.51a3.17,3.17,0,0,1,.62-.28,2,2,0,0,1,.68-.11,1.35,1.35,0,0,1,.5.08,1,1,0,0,1,.4.31A1.16,1.16,0,0,1,68,70a3.64,3.64,0,0,1-.42.9.05.05,0,0,1-.06.06c-.11.19-.21.36-.3.53a1.15,1.15,0,0,0-.15.59v.28a1,1,0,0,1,.09.26,1.21,1.21,0,0,1,0,.25A6.4,6.4,0,0,0,68,74.81a1.85,1.85,0,0,0,1.63.84h.12a2,2,0,0,0,1.74-1,5.38,5.38,0,0,0,.73-2.25v-.39c0-.19,0-.39,0-.59a5.4,5.4,0,0,0-.09-.6c-.07-.3-.15-.6-.22-.9a3.53,3.53,0,0,0-.29-.78q-.22-.57-.39-1c-.11-.26-.19-.43-.22-.51Z" transform="translate(-11.56 -34.16)"/><path d="M87.4,80l-.06-.11-.56-.14a2.18,2.18,0,0,1-.56-.26,8.63,8.63,0,0,1-3.44-3.2,9.18,9.18,0,0,1-1.57-5V71a.54.54,0,0,0,.05-.19V70.7c0-.53.09-1.09.14-1.69s.12-1.2.2-1.81c.07-.37.13-.75.17-1.12A11,11,0,0,1,81.94,65c.18-1.27.36-2.38.53-3.32a14.87,14.87,0,0,1,.31-1.52l-.31-.17a3.82,3.82,0,0,1-.42-.28,2.29,2.29,0,0,1-.51-.59,2,2,0,0,1-.28-.82v-.11a1.74,1.74,0,0,1,.06-.45,1,1,0,0,1,.17-.39l.08-.09a.1.1,0,0,0,0-.08.88.88,0,0,0,.17-.28,1,1,0,0,0,0-.34v-.14a.16.16,0,0,0,0-.14,7.74,7.74,0,0,1-.31-1.07,4.32,4.32,0,0,1-.09-.85,2.21,2.21,0,0,1,0-.39,2,2,0,0,0,0-.34,1.48,1.48,0,0,1,0-.31,1.21,1.21,0,0,0,0-.25v-.2a.18.18,0,0,0-.06-.14h1.69c.15-.53.27-1,.37-1.41s.17-.82.25-1.24.13-.83.17-1.26,0-.89,0-1.38V45.5a6.76,6.76,0,0,0,0-.76,7.27,7.27,0,0,0-.09-1.13c0-.37-.12-.76-.19-1.18a3.45,3.45,0,0,1,.42-.56c.28-.34.61-.71,1-1.13.19-.18.39-.36.6-.53l.59-.48a5.48,5.48,0,0,1,.78-.48,1.72,1.72,0,0,1,.74-.2h.05a3.29,3.29,0,0,1,.93.17,6.4,6.4,0,0,1,1,.45c.23.12.44.24.65.37l.59.37c.45.3.84.58,1.16.84a2.82,2.82,0,0,1,.53.51,4.13,4.13,0,0,1-.31.62,9.83,9.83,0,0,0-.59,1.29,2.4,2.4,0,0,0-.11.23l-.12.22c-.07.19-.15.37-.22.54s-.15.34-.23.53c-.15.41-.29.87-.42,1.35s-.25,1-.36,1.47a28.84,28.84,0,0,0-.68,3.29c-.15,1-.22,1.62-.22,1.77h3.09a2.08,2.08,0,0,1,.82.85,3.25,3.25,0,0,1,.31,1.18.91.91,0,0,1,0,.23.83.83,0,0,0,0,.22,2.43,2.43,0,0,1-.17.54,3.22,3.22,0,0,1-.22.42,1.87,1.87,0,0,1-.23.36,1.39,1.39,0,0,1-.17.2.26.26,0,0,1,.2.11l.2.28a1.68,1.68,0,0,1,.28.43,4,4,0,0,1,.17.48,6.06,6.06,0,0,1,.25.7,1.91,1.91,0,0,1,.09.48v.11a1.17,1.17,0,0,1-.48.56,1.38,1.38,0,0,1-.71.17,1.63,1.63,0,0,1-.36,0L92,60.22H89.2a13.35,13.35,0,0,0-.2,1.61c-.09,1-.19,2.13-.31,3.4a2.38,2.38,0,0,0,0,.45,1.82,1.82,0,0,1-.06.46c0,.48-.08,1-.11,1.46s-.08,1-.11,1.41a1.64,1.64,0,0,0-.06.42v.84a1.65,1.65,0,0,0,.06.43,5.62,5.62,0,0,0,.7,2.33,1.94,1.94,0,0,0,1.83,1,1.61,1.61,0,0,0,.67-.14,3.43,3.43,0,0,0,.68-.36,9.61,9.61,0,0,0,1.13-1.1c.37-.43.73-.87,1.07-1.32s.71-1,1-1.44.54-.83.73-1.1c0,0,0,0,.06,0l.14-.14a.62.62,0,0,1,.2-.15.42.42,0,0,1,.39,0c.11,0,.17.27.17.64v.17a2.77,2.77,0,0,1,0,.42,2.62,2.62,0,0,0,0,.37.6.6,0,0,1,0,.2.36.36,0,0,0,0,.14,5.25,5.25,0,0,1,0,.56,6,6,0,0,0,0,.62v.56a2.39,2.39,0,0,1-.14.79,4.39,4.39,0,0,1-.31.68.82.82,0,0,0-.17.22,1,1,0,0,1-.11.17,8,8,0,0,1-.57.87c-.22.32-.45.63-.67.93a5.39,5.39,0,0,0-.4.45,3.91,3.91,0,0,1-.39.45c-.15.16-.3.31-.45.48s-.32.35-.51.54A13.44,13.44,0,0,1,91,79.25a5.11,5.11,0,0,1-2.78.79h-.4a.54.54,0,0,1-.19,0,.64.64,0,0,0-.2,0Z" transform="translate(-11.56 -34.16)"/><path d="M116.22,56.4v.11a.15.15,0,0,0,.06.11v.28a5.52,5.52,0,0,1-.08.87c-.06.32-.13.65-.2,1a1.74,1.74,0,0,1-.06.45c0,.15-.07.3-.11.45s-.15.53-.23.79a6.09,6.09,0,0,0-.16.73l-1.19,6.87c0,.37-.07.72-.11,1a7.07,7.07,0,0,0-.06.87,3.77,3.77,0,0,0,.34,2,3.11,3.11,0,0,0,1.13,1.15.64.64,0,0,0,.2.08.54.54,0,0,0,.19,0,2.38,2.38,0,0,0,1.47-.79,13.33,13.33,0,0,0,1.69-2,6.44,6.44,0,0,0,.61-.84l.57-.9a2.45,2.45,0,0,1,.39-.25.64.64,0,0,1,.28-.09c.15,0,.26,0,.31.09a1,1,0,0,1,.14.31.26.26,0,0,0,0,.11.23.23,0,0,1,0,.11,3.46,3.46,0,0,1,.06.59v2.23a1.56,1.56,0,0,1-.26.76,6.41,6.41,0,0,1-.64.87.89.89,0,0,0-.17.19,1.4,1.4,0,0,1-.17.2,11.7,11.7,0,0,1-2.17,2.34,12,12,0,0,1-2.62,1.66,8.55,8.55,0,0,1-1.38.45,5.83,5.83,0,0,1-1.32.17h-.45a4.13,4.13,0,0,1-1.75-.62,8.24,8.24,0,0,1-1.4-1.13c-.15-.18-.31-.36-.48-.53l-.48-.48a7.38,7.38,0,0,0-.79,1c-.34.51-.73,1.06-1.18,1.66a10.73,10.73,0,0,1-1.83,1.92,3.5,3.5,0,0,1-2.22.84h-.34a5.33,5.33,0,0,1-4.54-3.18A15.89,15.89,0,0,1,96,71.6v-.68a1,1,0,0,0,.06-.34v-.33A36,36,0,0,1,99,57.18q2.5-5.51,7.29-5.46a2.8,2.8,0,0,1,1.41.45,8.69,8.69,0,0,1,1.12,1,2.56,2.56,0,0,1,.42.39l.43.45a.92.92,0,0,0,.28.09l.39.08c.34.08.71.14,1.13.2s.84.14,1.29.25a11.49,11.49,0,0,1,2.28.65c.7.28,1.08.67,1.16,1.16ZM109,57.46a.41.41,0,0,1-.31-.14,2.6,2.6,0,0,0-.31-.25,2.76,2.76,0,0,0-.45-.28.93.93,0,0,0-.45-.11c-.41,0-.89.45-1.43,1.46a27.14,27.14,0,0,0-1.78,6.47c0,.23-.08.47-.14.74s-.1.5-.14.73-.14.6-.2.9-.12.6-.19.9c-.12.68-.21,1.34-.29,2a17.52,17.52,0,0,0-.11,1.83,5.78,5.78,0,0,0,.28,1.86,1.56,1.56,0,0,0,.9,1c.72.23,1.35-.2,1.89-1.27a15.49,15.49,0,0,0,1.27-3.63c.07-.41.15-.81.22-1.21s.13-.78.17-1.15Z" transform="translate(-11.56 -34.16)"/><path d="M121,56.06c.07-.64.12-1.19.14-1.66s0-.93,0-1.38V50.6c0-.12-.08-.24-.11-.37a1.42,1.42,0,0,1-.06-.42v-.23a2.5,2.5,0,0,1,.45-1.18,2.11,2.11,0,0,1,1-.79l.2-.08a.6.6,0,0,1,.2,0,.41.41,0,0,1,.19-.06h.2l.45,0a1.56,1.56,0,0,1,.45.14,2.41,2.41,0,0,1,.59-.14l.54,0a3.75,3.75,0,0,1,1.8.45,4,4,0,0,1,1.41,1.3,1.3,1.3,0,0,1,.22.48,2.26,2.26,0,0,1,.06.53,2.61,2.61,0,0,1-.17.9l-.34.9c-.11.34-.22.68-.34,1a3.38,3.38,0,0,0-.16,1.07V56.9a8.73,8.73,0,0,1,2.08-2.45,4.49,4.49,0,0,1,2.87-.93h.17a4.55,4.55,0,0,1,4.25,2.71,15.86,15.86,0,0,1,1.6,5.79c0,.46.07.91.09,1.36s0,.9,0,1.35v.56a2.6,2.6,0,0,1-.06.56,20.54,20.54,0,0,1-2.56,8.93,8,8,0,0,1-6.62,4.42h-.45a6,6,0,0,1-.62,0l-.5,0-.57-.11c-.18,0-.39-.08-.62-.11V89a.7.7,0,0,0,.12.4c.07.11.15.22.22.34s.07,0,.09,0,0,0,0,.09a.65.65,0,0,1,.17.22.61.61,0,0,1,.06.28,1,1,0,0,1-.23.54,4.16,4.16,0,0,1-.84.76,1.77,1.77,0,0,1-.59.31,2.09,2.09,0,0,1-.59.08H125a3.74,3.74,0,0,1-2.23-1.32,8.71,8.71,0,0,1-1.6-2.5,17.66,17.66,0,0,1-.48-4.37c-.09-2.34-.16-5-.2-8V71.77q.06-5,.23-9.46t.34-6.25Zm9.57,17.11a41.38,41.38,0,0,0,.79-5.06c0-.27.06-.54.08-.82s.05-.57.09-.87.06-.63.08-1,0-.72,0-1.1v-.39a13.9,13.9,0,0,0-.31-2.42,2,2,0,0,0-.93-1.47.18.18,0,0,0-.11,0h-.25a.25.25,0,0,0-.15,0,2.75,2.75,0,0,0-1.21,1.3,12.28,12.28,0,0,0-1,2.36c-.19.6-.35,1.2-.48,1.78a6.77,6.77,0,0,0-.2,1.38l-.17,7.77.48.19a1.81,1.81,0,0,0,.43.14,3.58,3.58,0,0,0,.45.09,3.4,3.4,0,0,0,.45,0H129C129.75,75.05,130.28,74.41,130.58,73.17Z" transform="translate(-11.56 -34.16)"/><path d="M161.83,68.61l.11-.11a.92.92,0,0,1,.59-.34c.17,0,.25.13.25.4v.11c0,.34,0,.64,0,.9s0,.53,0,.79,0,.52,0,.79,0,.56,0,.9a1.63,1.63,0,0,1,0,.36,1.36,1.36,0,0,1-.23.42,1.84,1.84,0,0,1-.28.48,4.15,4.15,0,0,1-.34.37c-.15.22-.54.69-1.18,1.41a23.9,23.9,0,0,1-2.37,2.25,26.77,26.77,0,0,1-3,2.14,11.48,11.48,0,0,1-3.32,1.41l-.79.11a5.24,5.24,0,0,1-.79,0h-.45q-4.56-.27-6.39-3.29t-1.88-8.53c0-.86,0-1.75.08-2.67s.12-1.89.2-2.9a14,14,0,0,1,.19-1.52c.1-.53.2-1,.31-1.58s.16-.89.26-1.32.17-.86.25-1.27c.26-1.2.52-2.23.76-3.09s.37-1.34.37-1.41l3.09-.68.76-.22a5.52,5.52,0,0,0,.71-.28l.36-.12a1,1,0,0,0,.37-.17,9.12,9.12,0,0,1,.93-.28,4.81,4.81,0,0,1,1-.11h.34a7.29,7.29,0,0,1,5.18,2.56,8.12,8.12,0,0,1,2,5.49V60q-.22,4.84-1.85,7.09a8.56,8.56,0,0,1-3.55,3,7.74,7.74,0,0,1-1.66.48,8.58,8.58,0,0,1-1.55.14c-.3,0-.57,0-.82,0a3.72,3.72,0,0,1-.64-.08l-.46-.09-.22,0a1.55,1.55,0,0,0,0,.31,1.13,1.13,0,0,1,0,.25.62.62,0,0,0,0,.2.54.54,0,0,1,0,.19,9.32,9.32,0,0,0,.71,2.76c.35.83,1.36,1.24,3,1.24a5.16,5.16,0,0,0,1.15-.14,7.83,7.83,0,0,0,1.16-.37A12.8,12.8,0,0,0,157,73.4a20.75,20.75,0,0,0,2.45-2.09,15.63,15.63,0,0,0,1.27-1.4c.36-.45.67-.87.93-1.24ZM152,65.8l.12-.23a2.74,2.74,0,0,0,.11-.34,10.84,10.84,0,0,0,.51-2c.15-.85.26-1.72.33-2.62q0-.51,0-1t0-.9a10.44,10.44,0,0,0-.25-2.45c-.17-.69-.46-1.08-.88-1.15-.63-.12-1.19.48-1.66,1.77a27.75,27.75,0,0,0-1.15,4.31c-.23,1.27-.4,2.47-.54,3.6s-.19,1.88-.19,2.25v.23l.14,0,.2,0a.83.83,0,0,1,.22,0,1.14,1.14,0,0,0,.28,0,3.88,3.88,0,0,0,.73-.08,2.68,2.68,0,0,0,.85-.37,6.47,6.47,0,0,0,.56-.51,3,3,0,0,0,.51-.67Z" transform="translate(-11.56 -34.16)"/><path d="M167.74,80l-.06-.11-.56-.14a2.18,2.18,0,0,1-.56-.26,8.63,8.63,0,0,1-3.44-3.2,9.27,9.27,0,0,1-1.58-5V71a.41.41,0,0,0,.06-.19V70.7c0-.53.09-1.09.14-1.69s.12-1.2.2-1.81c.07-.37.13-.75.17-1.12a8.81,8.81,0,0,1,.17-1.13c.18-1.27.36-2.38.53-3.32a14.87,14.87,0,0,1,.31-1.52l-.31-.17a3.82,3.82,0,0,1-.42-.28,2.29,2.29,0,0,1-.51-.59,2,2,0,0,1-.28-.82v-.11a1.74,1.74,0,0,1,.06-.45,1,1,0,0,1,.17-.39l.08-.09a.1.1,0,0,0,0-.08.88.88,0,0,0,.17-.28,1.4,1.4,0,0,0,0-.34v-.14a.2.2,0,0,0,0-.14,6.55,6.55,0,0,1-.31-1.07,4.32,4.32,0,0,1-.09-.85,2.21,2.21,0,0,1,0-.39,2,2,0,0,0,0-.34,1.48,1.48,0,0,1,0-.31,1.21,1.21,0,0,0,0-.25v-.2a.18.18,0,0,0-.06-.14h1.69c.15-.53.27-1,.36-1.41s.18-.82.26-1.24.13-.83.17-1.26.05-.89.05-1.38V45.5a6.76,6.76,0,0,0-.05-.76,7.27,7.27,0,0,0-.09-1.13c0-.37-.12-.76-.19-1.18a3.45,3.45,0,0,1,.42-.56c.28-.34.61-.71,1-1.13l.59-.53.6-.48a5.48,5.48,0,0,1,.78-.48,1.72,1.72,0,0,1,.74-.2h0a3.29,3.29,0,0,1,.93.17,6.8,6.8,0,0,1,1,.45c.23.12.44.24.65.37l.59.37c.45.3.84.58,1.16.84a2.82,2.82,0,0,1,.53.51,4.13,4.13,0,0,1-.31.62,9.83,9.83,0,0,0-.59,1.29,2.4,2.4,0,0,0-.11.23l-.12.22c-.07.19-.15.37-.22.54s-.15.34-.23.53c-.15.41-.29.87-.42,1.35s-.25,1-.36,1.47A28.84,28.84,0,0,0,170,51.3c-.15,1-.23,1.62-.23,1.77h3.1a2.08,2.08,0,0,1,.82.85A3.25,3.25,0,0,1,174,55.1a.91.91,0,0,1,0,.23.83.83,0,0,0,0,.22,2.43,2.43,0,0,1-.17.54,3.22,3.22,0,0,1-.22.42,1.87,1.87,0,0,1-.23.36,1.39,1.39,0,0,1-.17.2.26.26,0,0,1,.2.11l.2.28a1.68,1.68,0,0,1,.28.43,4,4,0,0,1,.17.48,6.06,6.06,0,0,1,.25.7,1.8,1.8,0,0,1,.08.48v.11a1.1,1.1,0,0,1-.47.56,1.41,1.41,0,0,1-.71.17,1.63,1.63,0,0,1-.36,0l-.43-.12h-2.81a13.35,13.35,0,0,0-.2,1.61c-.09,1-.19,2.13-.31,3.4a1.77,1.77,0,0,0-.05.45,1.82,1.82,0,0,1-.06.46c0,.48-.08,1-.11,1.46s-.08,1-.12,1.41a2.18,2.18,0,0,0-.05.42v.84a2.18,2.18,0,0,0,.05.43A5.62,5.62,0,0,0,169.4,73a1.94,1.94,0,0,0,1.83,1,1.61,1.61,0,0,0,.67-.14,3.73,3.73,0,0,0,.68-.36,9.61,9.61,0,0,0,1.13-1.1c.37-.43.73-.87,1.07-1.32s.71-1,1-1.44.54-.83.73-1.1c0,0,0,0,.06,0l.14-.14a.7.7,0,0,1,.19-.15.44.44,0,0,1,.4,0c.11,0,.17.27.17.64v.17a2.77,2.77,0,0,1,0,.42,2.62,2.62,0,0,0,0,.37.6.6,0,0,1,0,.2.36.36,0,0,0,0,.14,5.25,5.25,0,0,1,0,.56,6,6,0,0,0,0,.62v.56a2.39,2.39,0,0,1-.14.79,4.39,4.39,0,0,1-.31.68.82.82,0,0,0-.17.22,1,1,0,0,1-.11.17,8,8,0,0,1-.57.87c-.22.32-.45.63-.67.93a5.39,5.39,0,0,0-.4.45,3.91,3.91,0,0,1-.39.45c-.15.16-.3.31-.45.48s-.32.35-.51.54a13.44,13.44,0,0,1-2.28,1.74,5.11,5.11,0,0,1-2.78.79h-.4a.64.64,0,0,1-.2,0,.54.54,0,0,0-.19,0Z" transform="translate(-11.56 -34.16)"/><path d="M175.39,71.82l.29-.11c.18-.38.35-.75.5-1.13l.45-1.12c.42-1.2.8-2.44,1.16-3.72s.66-2.7.93-4.28c.15-.86.27-1.65.36-2.36s.16-1.41.2-2.09.06-1.52.08-2.3,0-1.66,0-2.59l.54-.12.53-.11.37-.11.42-.11a3.34,3.34,0,0,0,.79-.31l.62-.37a1.6,1.6,0,0,0,.19-.11l.14-.11c.3-.15.6-.3.91-.43a3.4,3.4,0,0,1,1-.25H185l.45,0,.51.08.67.14a4.11,4.11,0,0,1,.62.2,7.2,7.2,0,0,1,.76.23,1.59,1.59,0,0,1,.37.16v1.3q0,.68.06,1.41c0,.22,0,.45,0,.67s.05.45.09.68a14.11,14.11,0,0,0,.87,3.09c.4.94.82,1.84,1.27,2.71.56,1.05,1.07,2.12,1.52,3.21a11.3,11.3,0,0,1,.79,3.71v.85a14.87,14.87,0,0,1-.59,4.7,11.67,11.67,0,0,1-1.38,3.07,3.06,3.06,0,0,1-.74.67l-4.95,2.7a2.36,2.36,0,0,0-.42.28l-.37.34c-.07.08-.14.15-.2.23l-.14.17a3.91,3.91,0,0,1-.45.39.84.84,0,0,1-.5.17h-.06a5.9,5.9,0,0,1-3.57-1.35,6.52,6.52,0,0,1-1.72-2.48,6.63,6.63,0,0,1-.45-1.66,9.65,9.65,0,0,1-.12-1.38v-.34a.61.61,0,0,1,.06-.28v-.22a1.19,1.19,0,0,1-.28.05.18.18,0,0,1-.14.06.18.18,0,0,0-.14.06h-.51c-.22,0-.44-.09-.65-.15a.59.59,0,0,1-.42-.42.38.38,0,0,1-.05-.19v-.37a.64.64,0,0,0,.05-.23.46.46,0,0,1,.06-.22c0-.11.07-.23.11-.34ZM183,61l-.42.85q-.19.39-.36.78c-.08.15-.14.31-.2.45a3.76,3.76,0,0,1-.2.46,2.52,2.52,0,0,1-.17.53c-.07.17-.15.37-.22.59-.11.38-.23.71-.34,1s-.22.61-.34.91a7.15,7.15,0,0,0-.19.7c-.06.24-.13.48-.2.7s-.08.3-.11.45-.08.32-.12.51a3.17,3.17,0,0,1,.62-.28,2,2,0,0,1,.68-.11,1.4,1.4,0,0,1,.51.08.94.94,0,0,1,.39.31,1.2,1.2,0,0,1,.37,1.07,4.1,4.1,0,0,1-.43.9s0,.06,0,.06c-.12.19-.22.36-.31.53a1.15,1.15,0,0,0-.14.59v.28a1.6,1.6,0,0,1,.08.26,1.21,1.21,0,0,1,0,.25,6.66,6.66,0,0,0,.84,1.92,1.85,1.85,0,0,0,1.64.84h.11a2,2,0,0,0,1.74-1,5.53,5.53,0,0,0,.74-2.25v-.39c0-.19,0-.39,0-.59a5.4,5.4,0,0,0-.09-.6c-.07-.3-.15-.6-.22-.9a4.14,4.14,0,0,0-.28-.78c-.15-.38-.28-.7-.4-1s-.19-.43-.22-.51Z" transform="translate(-11.56 -34.16)"/></svg>